{"title":"Ragini MMS 2 - Baby Doll [Sunny Leone Song] 1080p [Sbyky]","uid":9648759,"size":58708015,"categoryP":"video","categoryS":"music_videos","magnet":"?xt=urn:btih:8fa45718bd0b40927f235372d93b558231acd05c&amp;dn=Ragini+MMS+2+-+Baby+Doll+%5BSunny+Leone+Song%5D+1080p+%5BSbyky%5D&amp;tr=udp%3A%2F%2Ftracker.openbittorrent.com%3A80&amp;tr=udp%3A%2F%2Fopen.demonii.com%3A1337&amp;tr=udp%3A%2F%2Ftracker.coppersurfer.tk%3A6969&amp;tr=udp%3A%2F%2Fexodus.desync.com%3A6969","seeders":16,"leechers":1,"uploader":"Sbyky","files":1,"time":1393042442,"description":"\n\nGeneral\nComplete name                            : Ragini MMS 2 - Baby Doll [Sunny Leone Song] 1080p [Sbyky].MP4\nFormat                                   : MPEG-4\nFormat profile                           : Base Media\nCodec ID                                 : isom\nFile size                                : 56.0 MiB\nDuration                                 : 2mn 24s\nOverall bit rate mode                    : Variable\nOverall bit rate                         : 3 260 Kbps\nEncoded date                             : UTC 2014-02-17 09:33:00\nTagged date                              : UTC 2014-02-17 09:33:00\n\nVideo\nID                                       : 1\nFormat                                   : AVC\nFormat/Info                              : Advanced Video Codec\nFormat profile                           : &lt;a class=&quot;__cf_email__&quot; href=&quot;/cdn-cgi/l/email-protection&quot; data-cfemail=&quot;7038191718303c445e40&quot;&gt;[email&amp;#160;protected]&lt;/a&gt;&lt;script cf-hash='f9e31' type=&quot;text/javascript&quot;&gt;\n/* &lt;![CDATA[ */!function(){try{var t=&quot;currentScript&quot;in document?document.currentScript:function(){for(var t=document.getElementsByTagName(&quot;script&quot;),e=t.length;e--;)if(t[e].getAttribute(&quot;cf-hash&quot;))return t[e]}();if(t&amp;&amp;t.previousSibling){var e,r,n,i,c=t.previousSibling,a=c.getAttribute(&quot;data-cfemail&quot;);if(a){for(e=&quot;&quot;,r=parseInt(a.substr(0,2),16),n=2;a.length-n;n+=2)i=parseInt(a.substr(n,2),16)^r,e+=String.fromCharCode(i);e=document.createTextNode(e),c.parentNode.replaceChild(e,c)}}}catch(u){}}();/* ]]&gt; */&lt;/script&gt;\nFormat settings, CABAC                   : Yes\nFormat settings, ReFrames                : 3 frames\nCodec ID                                 : avc1\nCodec ID/Info                            : Advanced Video Coding\nDuration                                 : 2mn 23s\nDuration_LastFrame                       : -39ms\nBit rate                                 : 3 133 Kbps\nWidth                                    : 1 920 pixels\nHeight                                   : 1 080 pixels\nDisplay aspect ratio                     : 16:9\nFrame rate mode                          : Constant\nFrame rate                               : 25.000 fps\nColor space                              : YUV\nChroma subsampling                       : 4:2:0\nBit depth                                : 8 bits\nScan type                                : Progressive\nBits/(Pixel*Frame)                       : 0.060\nStream size                              : 53.8 MiB (96%)\nEncoded date                             : UTC 2014-02-17 09:33:00\nTagged date                              : UTC 2014-02-17 09:33:00\n\nAudio\nID                                       : 2\nFormat                                   : AAC\nFormat/Info                              : Advanced Audio Codec\nFormat profile                           : LC\nCodec ID                                 : 40\nDuration                                 : 2mn 24s\nBit rate mode                            : Variable\nBit rate                                 : 126 Kbps\nChannel(s)                               : 2 channels\nChannel positions                        : Front: L R\nSampling rate                            : 44.1 KHz\nCompression mode                         : Lossy\nStream size                              : 2.16 MiB (4%)\nEncoded date                             : UTC 2014-02-17 09:31:00\nTagged date                              : UTC 2014-02-17 09:31:00\n\nShared By Sbyky\n","torrent":{"xt":"urn:btih:8fa45718bd0b40927f235372d93b558231acd05c","amp;dn":"Ragini+MMS+2+-+Baby+Doll+%5BSunny+Leone+Song%5D+1080p+%5BSbyky%5D","amp;tr":["udp%3A%2F%2Ftracker.openbittorrent.com%3A80","udp%3A%2F%2Fopen.demonii.com%3A1337","udp%3A%2F%2Ftracker.coppersurfer.tk%3A6969","udp%3A%2F%2Fexodus.desync.com%3A6969"],"infoHash":"8fa45718bd0b40927f235372d93b558231acd05c","infoHashBuffer":{"type":"Buffer","data":[143,164,87,24,189,11,64,146,127,35,83,114,217,59,85,130,49,172,208,92]},"announce":[],"urlList":[]}}